<svg aria-label="Direct" class="x1lliihq x1n2onr6 x5n08af" fill="currentColor"
  role="img" viewBox="0 0 24 24" xmlns="http://www.w3.org/2000/svg">
  <title>Direct</title>
  <path
    d="M22.91 2.388a.69.69 0 0 0-.597-.347l-20.625.002a.687.687 0 0 0-.482 1.178L7.26 9.16a.686.686 0 0 0 .778.128l7.612-3.657a.723.723 0 0 1 .937.248.688.688 0 0 1-.225.932l-7.144 4.52a.69.69 0 0 0-.3.743l2.102 8.692a.687.687 0 0 0 .566.518.655.655 0 0 0 .103.008.686.686 0 0 0 .59-.337L22.903 3.08a.688.688 0 0 0 .007-.692"
    fill-rule="evenodd"></path>
</svg>